<svg width="256" height="256" viewBox="0 0 256 256" xmlns="http://www.w3.org/2000/svg">
  <rect width="256" height="256" rx="48" fill="#1a0e2e"/>
  <g transform="translate(128, 128)">
    <!-- hooded cloak silhouette -->
    <path d="M0-68 C-30-68 -52-46 -56-20 C-58-6 -54 10 -48 24 L-56 76 L-28 64 L0 76 L28 64 L56 76 L48 24 C54 10 58-6 56-20 C52-46 30-68 0-68z"
      fill="none" stroke="white" stroke-width="3" stroke-linejoin="round" stroke-linecap="round"/>
    <!-- face shadow opening -->
    <path d="M0-36 C-16-36 -28-22 -28-6 C-28 10 -16 22 0 22 C16 22 28 10 28-6 C28-22 16-36 0-36z"
      fill="none" stroke="white" stroke-width="2.5" stroke-linejoin="round" opacity="0.6"/>
    <!-- single eye dot in shadow -->
    <circle cx="0" cy="-4" r="4" fill="white" opacity="0.5"/>
  </g>
</svg>
